<svg xmlns="http://www.w3.org/2000/svg" viewBox="0 0 123 82" width="24" height="16">
  <rect width="123" height="82" fill="#B22234"/>
  <rect width="123" height="12" fill="#fff"/>
  <rect y="12" width="123" height="12" fill="#fff"/>
  <rect y="24" width="123" height="12" fill="#fff"/>
  <rect y="36" width="123" height="12" fill="#fff"/>
  <rect y="48" width="123" height="12" fill="#fff"/>
  <rect y="60" width="123" height="12" fill="#fff"/>
  <rect y="72" width="123" height="10" fill="#fff"/>
  <rect width="54" height="36" fill="#3C3B6E"/>
  <circle cx="8" cy="8" r="2" fill="#fff"/>
  <circle cx="20" cy="8" r="2" fill="#fff"/>
  <circle cx="32" cy="8" r="2" fill="#fff"/>
  <circle cx="44" cy="8" r="2" fill="#fff"/>
  <circle cx="8" cy="20" r="2" fill="#fff"/>
  <circle cx="20" cy="20" r="2" fill="#fff"/>
  <circle cx="32" cy="20" r="2" fill="#fff"/>
  <circle cx="44" cy="20" r="2" fill="#fff"/>
  <circle cx="14" cy="14" r="2" fill="#fff"/>
  <circle cx="26" cy="14" r="2" fill="#fff"/>
  <circle cx="38" cy="14" r="2" fill="#fff"/>
  <circle cx="14" cy="26" r="2" fill="#fff"/>
  <circle cx="26" cy="26" r="2" fill="#fff"/>
  <circle cx="38" cy="26" r="2" fill="#fff"/>
</svg>